<?xml version="1.0" encoding="UTF-8"?>
<svg id="Layer_1" xmlns="http://www.w3.org/2000/svg" version="1.1" viewBox="0 0 235 88">
  <!-- Generator: Adobe Illustrator 29.8.2, SVG Export Plug-In . SVG Version: 2.1.1 Build 3)  -->
  <defs>
    <style>
      .st0 {
        fill: #0075ff;
      }

      .st1 {
        fill: #0b00ce;
      }

      .st2 {
        stroke: #fff;
        stroke-width: 3px;
      }

      .st2, .st3 {
        fill: none;
        stroke-miterlimit: 10;
      }

      .st4 {
        fill: #0063ff;
      }

      .st5 {
        fill: #818181;
      }

      .st3 {
        stroke: #7f8184;
        stroke-width: 1.5px;
      }
    </style>
  </defs>
  <g>
    <g>
      <path class="st1" d="M31.76,46.68c1.02,1.5,1.53,3.11,1.53,4.83,0,1.48-.36,2.89-1.08,4.23s-1.76,2.51-3.12,3.51c-2.8,2-6.06,3-9.78,3-1.84,0-3.6-.26-5.28-.78s-3.18-1.26-4.5-2.22c-2.28-1.68-3.66-3.74-4.14-6.18l2.58-1.44c.12,2.2,1.2,4,3.24,5.4,1.04.8,2.26,1.41,3.66,1.83,1.4.42,2.88.63,4.44.63,3.2,0,5.9-.82,8.1-2.46,2.12-1.56,3.18-3.4,3.18-5.52,0-1.24-.39-2.4-1.17-3.48-.78-1.08-1.87-2-3.27-2.76-1.32-.68-3.68-1.22-7.08-1.62-.28-.04-1.29-.2-3.03-.48-1.74-.28-3.23-.72-4.47-1.32-1.96-.96-3.5-2.23-4.62-3.81s-1.68-3.29-1.68-5.13c0-1.48.37-2.87,1.11-4.17s1.79-2.45,3.15-3.45c1.32-.96,2.82-1.7,4.5-2.22,1.68-.52,3.44-.78,5.28-.78,3.72,0,6.98,1,9.78,3,2.32,1.76,3.68,3.8,4.08,6.12l-2.58,1.44c-.04-1-.33-1.96-.87-2.88-.54-.92-1.31-1.76-2.31-2.52-1.08-.8-2.32-1.41-3.72-1.83s-2.86-.63-4.38-.63-2.99.21-4.41.63-2.65,1.03-3.69,1.83c-1.04.76-1.84,1.61-2.4,2.55-.56.94-.84,1.91-.84,2.91,0,1.24.46,2.47,1.38,3.69.92,1.22,2.06,2.17,3.42,2.85.84.4,1.77.69,2.79.87s2.33.37,3.93.57c.28.04.98.14,2.1.3s2.2.38,3.24.66c1.04.28,1.92.62,2.64,1.02,1.84,1.04,3.27,2.31,4.29,3.81Z"/>
      <path class="st1" d="M44.52,57.91c1.78,1.62,3.89,2.44,6.34,2.44,2.63,0,4.88-.93,6.74-2.79.24-.24.46-.48.67-.74l2,.71c-.36.5-.78.99-1.24,1.45-2.25,2.25-4.98,3.38-8.17,3.38s-5.89-1.13-8.15-3.38c-2.25-2.25-3.38-4.98-3.38-8.17s1.13-5.89,3.38-8.15,4.97-3.38,8.15-3.38c2.73,0,5.12.82,7.16,2.46.34.28.67.59,1.01.92.13.13.25.25.36.38l-1.43,1.43s-13.44,13.44-13.44,13.44ZM56.57,43.19c-1.64-1.26-3.54-1.89-5.71-1.89-2.62,0-4.86.93-6.72,2.78-1.86,1.86-2.79,4.1-2.79,6.73,0,2.17.63,4.07,1.89,5.71,0,0,13.33-13.33,13.33-13.33Z"/>
      <path class="st4" d="M82.33,61.77l-12.42-15.09h3.68c2.27,0,4.11-.29,5.52-.87,1.04-.49,1.95-1.23,2.71-2.23.77-1,1.15-2.09,1.15-3.29,0-1.07-.32-2.09-.97-3.06-.64-.97-1.56-1.75-2.76-2.37-1.2-.61-2.58-.92-4.14-.92h-8.37v27.83h-2.07v-29.9h10.44c1.41,0,2.73.22,3.96.67s2.3,1.08,3.22,1.91c.89.8,1.57,1.7,2.05,2.71.47,1.01.71,2.05.71,3.13,0,1.69-.51,3.2-1.52,4.53-1.01,1.33-2.21,2.29-3.59,2.88-.95.43-1.88.7-2.78.81s-1.86.16-2.88.16l10.81,13.11h-2.76,0Z"/>
      <path class="st0" d="M102.86,52.59c.53.97.8,1.97.8,2.99,0,1.16-.33,2.23-.99,3.21-.66.99-1.55,1.77-2.67,2.35s-2.34.87-3.66.87c-1.18,0-2.28-.23-3.31-.7-1.03-.46-1.89-1.1-2.57-1.92s-1.12-1.72-1.33-2.72l1.46-1.05c0,.86.26,1.67.78,2.41.52.75,1.22,1.34,2.09,1.77.87.43,1.83.65,2.87.65s2.01-.21,2.89-.65c.88-.43,1.59-1.02,2.11-1.77.52-.75.78-1.56.78-2.45,0-.77-.23-1.54-.68-2.31s-1.1-1.5-1.94-2.18l-1.7-1.29,1.26-1.26c.59-.63,1-1.21,1.22-1.72.23-.51.34-1.09.34-1.75,0-1.11-.42-2.06-1.26-2.84-.84-.78-1.85-1.17-3.03-1.17s-2.19.39-3.03,1.17-1.26,1.73-1.26,2.84h-1.56c0-1.02.27-1.96.8-2.81.53-.85,1.25-1.52,2.14-2.02s1.86-.75,2.91-.75,2.04.25,2.94.75c.89.5,1.6,1.17,2.12,2.02.52.85.78,1.79.78,2.81,0,.95-.16,1.76-.49,2.43-.33.67-.84,1.37-1.55,2.09.02.02.06.06.12.1.06.04.13.1.22.17,1.04.84,1.83,1.75,2.36,2.72h.04,0Z"/>
    </g>
    <g>
      <path class="st5" d="M131.53,43.53c2,.52,3.65,1.6,4.93,3.22,1.3,1.66,1.95,3.55,1.95,5.66,0,2.52-.89,4.68-2.69,6.47-1.79,1.79-3.95,2.69-6.47,2.69h-17.14V26.54h14.65c2.54,0,4.7.9,6.49,2.69,1.79,1.79,2.69,3.96,2.69,6.49,0,3.42-1.47,6.02-4.42,7.81h.01ZM113.74,43.26h13.04c2.08,0,3.87-.74,5.35-2.22,1.48-1.48,2.22-3.25,2.22-5.32s-.74-3.87-2.22-5.35-3.26-2.22-5.35-2.22h-13.04s0,15.11,0,15.11ZM129.27,59.96c2.08,0,3.86-.74,5.32-2.22,1.48-1.46,2.22-3.24,2.22-5.32s-.74-3.87-2.22-5.35c-1.46-1.46-3.24-2.2-5.32-2.2h-15.53v15.09h15.53Z"/>
      <path class="st5" d="M163.45,51.93h-20.51c.18,2.49,1.18,4.59,3.01,6.32,1.85,1.72,4.03,2.58,6.54,2.58,2.65,0,4.91-.94,6.79-2.81l.94.96c-2.13,2.13-4.71,3.2-7.73,3.2s-5.59-1.07-7.73-3.2c-2.13-2.15-3.2-4.72-3.2-7.73s1.07-5.6,3.2-7.73,4.72-3.22,7.73-3.22,5.6,1.07,7.73,3.22c2.15,2.13,3.22,4.71,3.22,7.73v.68h.01ZM162.05,50.58c-.16-2.5-1.17-4.61-3.02-6.32-1.83-1.74-4.01-2.6-6.54-2.6s-4.7.87-6.54,2.6c-1.83,1.71-2.84,3.81-3.01,6.32h19.11,0Z"/>
      <path class="st5" d="M166.95,32.14h1.35v29.43h-1.35v-29.43Z"/>
      <path class="st5" d="M172.63,32.14h1.35v29.43h-1.35v-29.43Z"/>
      <path class="st5" d="M180.2,59.68c-1.67-1.67-2.5-3.67-2.5-6.01v-12.74h1.35v12.74c0,1.97.7,3.66,2.09,5.07,1.41,1.39,3.1,2.09,5.07,2.09s3.67-.7,5.06-2.09,2.11-3.1,2.11-5.07v-12.74h1.35v12.74c0,2.34-.83,4.34-2.5,6.01s-3.68,2.5-6.03,2.5-4.34-.83-6.01-2.5h0Z"/>
      <path class="st5" d="M222.22,40.3c2.35,0,4.35.83,6.01,2.5,1.67,1.67,2.5,3.67,2.5,6.01v12.76h-1.35v-12.76c0-1.97-.7-3.66-2.09-5.07-1.41-1.39-3.1-2.09-5.06-2.09s-3.67.7-5.07,2.09c-1.39,1.41-2.09,3.1-2.09,5.07v12.76h-1.35v-12.76c0-1.97-.7-3.66-2.11-5.07s-3.08-2.09-5.07-2.09-3.66.7-5.06,2.09c-1.39,1.41-2.09,3.1-2.09,5.07v12.76h-1.35v-20.63h1.35v3.28c1.68-2.61,4.07-3.92,7.16-3.92,1.74,0,3.32.49,4.76,1.46,1.39.94,2.43,2.19,3.1,3.73.66-1.54,1.68-2.79,3.08-3.73,1.44-.97,3.02-1.46,4.76-1.46h-.03,0Z"/>
    </g>
  </g>
  <line class="st2" x1="112.85" y1="-.09" x2="112.6" y2="87.91"/>
  <line class="st3" x1="109.95" y1=".09" x2="109.7" y2="88.09"/>
</svg>